<svg xmlns="http://www.w3.org/2000/svg" viewBox="0 0 150.09 98.7"><defs><style>.cls-1{opacity:0.5;}.cls-2,.cls-4{fill:#fff;}.cls-3{fill:#aeafae;}.cls-4{font-size:57.8px;font-family:Gilroy-Heavy, Gilroy;font-weight:800;}.cls-5{letter-spacing:-0.03em;}</style></defs><g id="Camada_2" data-name="Camada 2"><g id="Layer_1" data-name="Layer 1"><g class="cls-1"><path class="cls-2" d="M98.36,36.89c15.56-6,22.07-24.43,22.07-24.43C118.11,5.07,107.67,5,107.67,5a70.73,70.73,0,0,1-1.81,14.2C103.06,31.63,98.36,36.89,98.36,36.89Z"/><path class="cls-2" d="M50.61,36.89c-15.56-6-22.07-24.43-22.07-24.43C30.85,5.07,41.29,5,41.29,5a71.26,71.26,0,0,0,1.82,14.2C45.91,31.63,50.61,36.89,50.61,36.89Z"/><path class="cls-2" d="M103.47,4.35c-8.79-5.8-49-5.8-57.77,0,0,0-1.93,13.84,8.31,19.61L60.36,12.8A12,12,0,0,1,62,19.2a36.69,36.69,0,0,1,13-2.8c5.56,0,12.65,2.94,12.65,2.94a17,17,0,0,1,1.15-6.54l8,10.87A25.62,25.62,0,0,0,103.47,4.35Z"/><path class="cls-2" d="M53.43,95.62s-19.09,5.7-24.61,1.55c0,0-15.31-29.26-4.74-68.43C24.08,28.74,44.15,85.72,53.43,95.62Z"/><path class="cls-3" d="M53.43,95.62s-10.19,3-17.83,3.07c0,0,8.4,1.07,1.21-15.27-5.07-11.55-11.55-28-12.73-54.68C24.08,28.74,44.15,85.72,53.43,95.62Z"/><path class="cls-2" d="M96.67,95.62s19.08,5.7,24.61,1.55c0,0,15.3-29.26,4.73-68.43C126,28.74,106,85.72,96.67,95.62Z"/><path class="cls-3" d="M96.67,95.62s10.18,3,17.82,3.07c0,0-8.39,1.07-1.21-15.27,5.08-11.55,11.56-28,12.73-54.68C126,28.74,106,85.72,96.67,95.62Z"/><path class="cls-2" d="M54.3,92.4c6.16,4.07,34.32,4.07,40.48,0,0,0,1.35-9.7-5.83-13.74l-4.44,7.83A8.44,8.44,0,0,1,83.37,82a25.69,25.69,0,0,1-9.13,2c-3.9,0-8.86-2.06-8.86-2.06a11.9,11.9,0,0,1-.81,4.59L59,78.87A17.91,17.91,0,0,0,54.3,92.4Z"/></g><text class="cls-4" transform="translate(0 65.71)"><tspan class="cls-5">F</tspan><tspan x="28.03" y="0">ANG</tspan></text></g></g></svg>